<svg width="1953" height="1297" viewBox="0 0 1953 1297" fill="none" xmlns="http://www.w3.org/2000/svg">
<path d="M0 1296.83C0 1296.83 205.543 882.793 998.212 772.718C1893.33 648.417 1952.35 431.425 1952.35 431.425V1296.83H0Z" fill="#9BC3D6"/>
<path d="M0 1296.83C0 1296.83 46.6096 808.268 1110.32 632.883C2174.03 457.498 1402.32 0 1402.32 0H0V1296.83Z" fill="#A1CF88"/>
<path d="M1952.35 747.6V1296.83H747.723C720.54 1222.82 722.619 1138.84 758.015 1067.4C822.169 937.887 980.889 856.788 1137.1 860.047C1258.76 862.576 1385.46 909.37 1497.98 867.234C1546.28 849.146 1585.91 816.31 1631.2 792.649C1704.89 754.149 1791.99 741.043 1876.97 742.732C1902.19 743.235 1927.32 744.98 1952.35 747.6Z" fill="#6B9BC6"/>
<path d="M1286.95 110.053C1212.68 170.378 1081.44 123.527 1004.43 180.955C927.484 238.348 951.481 365.278 870.101 417.366C824.93 446.264 763.534 440.209 710.164 427.282C656.794 414.343 602.597 395.563 547.971 403.008C472.947 413.227 417.556 469.343 354.212 507.283C251.226 568.985 115.836 580.456 0 543.311V0H1327.88C1331.98 40.7175 1320.03 83.1712 1286.95 110.053Z" fill="#7E9986"/>
</svg>
