<svg width="432" height="288" viewBox="0 0 432 288" fill="none" xmlns="http://www.w3.org/2000/svg">
<g clip-path="url(#clip0_1390_5335)">
<g style="mix-blend-mode:color-burn">
<path d="M145.644 167.191C171.062 140.75 171.86 100.273 147.425 76.784C122.991 53.2948 82.577 55.6878 57.1588 82.129C31.7406 108.57 30.9431 149.047 55.3775 172.536C79.812 196.025 120.226 193.632 145.644 167.191Z" fill="#949494"/>
</g>
<g style="mix-blend-mode:color-burn" opacity="0.9">
<path d="M51.47 144.15L148.24 132.61L156.44 128.36L48.19 141.26V236.16L94.45 230.65L93.99 227.43L51.47 232.5V144.15Z" fill="white"/>
<path d="M183.14 125.18V128.46L337.92 110.01V198.36L123.47 223.91L124.25 227.1L341.2 201.24V106.34L183.14 125.18Z" fill="white"/>
<path d="M52.28 143.33L149.05 131.8L157.26 127.54L49.01 140.44V235.34L95.27 229.83L94.81 226.61L52.28 231.68V143.33Z" fill="#FBFBFB"/>
<path d="M183.96 124.36V127.64L338.74 109.19V197.54L124.29 223.1L125.06 226.28L342.02 200.42V105.52L183.96 124.36Z" fill="#FBFBFB"/>
<path d="M53.1 142.51L149.87 130.98L158.08 126.72L49.83 139.63V234.53L96.09 229.01L95.63 225.79L53.1 230.86V142.51Z" fill="#F7F7F7"/>
<path d="M184.77 123.54V126.82L339.56 108.37V196.72L125.11 222.28L125.88 225.46L342.83 199.6V104.7L184.77 123.54Z" fill="#F7F7F7"/>
<path d="M53.92 141.69L150.69 130.16L158.9 125.91L50.65 138.81V233.71L96.91 228.19L96.44 224.97L53.92 230.04V141.69Z" fill="#F3F3F3"/>
<path d="M185.59 122.72V126L340.38 107.55V195.9L125.93 221.46L126.7 224.64L343.65 198.78V103.88L185.59 122.72Z" fill="#F3F3F3"/>
<path d="M54.74 140.87L151.51 129.34L159.71 125.09L51.46 137.99V232.89L97.73 227.38L97.26 224.15L54.74 229.22V140.87Z" fill="#EFEFEF"/>
<path d="M186.41 121.9V125.18L341.2 106.73V195.08L126.75 220.64L127.52 223.82L344.47 197.97V103.06L186.41 121.9Z" fill="#EFEFEF"/>
<path d="M55.56 140.05L152.33 128.52L160.53 124.27L52.28 137.17V232.07L98.55 226.56L98.08 223.34L55.56 228.4V140.05Z" fill="#EBEBEB"/>
<path d="M187.23 121.08V124.36L342.01 105.91V194.26L127.57 219.82L128.34 223L345.29 197.15V102.25L187.23 121.08Z" fill="#EBEBEB"/>
<path d="M56.38 139.24L153.15 127.7L161.35 123.45L53.1 136.35V231.25L99.36 225.74L98.9 222.52L56.38 227.58V139.24Z" fill="#E6E6E6"/>
<path d="M188.05 120.27V123.54L342.83 105.09V193.44L128.38 219L129.16 222.19L346.11 196.33V101.43L188.05 120.27Z" fill="#E6E6E6"/>
<path d="M57.2 138.42L153.97 126.88L162.17 122.63L53.92 135.53V230.43L100.18 224.92L99.72 221.7L57.2 226.77V138.42Z" fill="#E2E2E2"/>
<path d="M188.87 119.45V122.72L343.65 104.28V192.62L129.2 218.18L129.98 221.37L346.93 195.51V100.61L188.87 119.45Z" fill="#E2E2E2"/>
<path d="M58.02 137.6L154.79 126.06L162.99 121.81L54.74 134.71V229.61L101 224.1L100.54 220.88L58.02 225.95V137.6Z" fill="#DEDEDE"/>
<path d="M189.69 118.63V121.9L344.47 103.46V191.81L130.02 217.37L130.8 220.55L347.75 194.69V99.79L189.69 118.63Z" fill="#DEDEDE"/>
<path d="M58.83 136.78L155.6 125.25L163.81 120.99L55.56 133.89V228.79L101.82 223.28L101.36 220.06L58.83 225.13V136.78Z" fill="#DADADA"/>
<path d="M190.51 117.81V121.09L345.29 102.64V190.99L130.84 216.55L131.62 219.73L348.57 193.87V98.97L190.51 117.81Z" fill="#DADADA"/>
<path d="M59.65 135.96L156.42 124.43L164.63 120.17L56.38 133.07V227.98L102.64 222.46L102.18 219.24L59.65 224.31V135.96Z" fill="#D6D6D6"/>
<path d="M191.32 116.99V120.27L346.11 101.82V190.17L131.66 215.73L132.43 218.91L349.38 193.05V98.1499L191.32 116.99Z" fill="#D6D6D6"/>
<path d="M60.47 135.14L157.24 123.61L165.44 119.35L57.2 132.26V227.16L103.46 221.64L103 218.42L60.47 223.49V135.14Z" fill="#D2D2D2"/>
<path d="M192.14 116.17V119.45L346.93 101V189.35L132.48 214.91L133.25 218.09L350.2 192.24V97.3301L192.14 116.17Z" fill="#D2D2D2"/>
<path d="M61.29 134.32L158.06 122.79L166.26 118.53L58.01 131.44V226.34L104.28 220.82L103.81 217.6L61.29 222.67V134.32Z" fill="#CECECE"/>
<path d="M192.96 115.35V118.63L347.75 100.18V188.53L133.3 214.09L134.07 217.27L351.02 191.42V96.52L192.96 115.35Z" fill="#CECECE"/>
<path d="M62.11 133.5L158.88 121.97L167.08 117.72L58.83 130.62V225.52L105.1 220L104.63 216.78L62.11 221.85V133.5Z" fill="#CACACA"/>
<path d="M193.78 114.53V117.81L348.56 99.36V187.71L134.12 213.27L134.89 216.45L351.84 190.6V95.7L193.78 114.53Z" fill="#CACACA"/>
<path d="M62.93 132.69L159.7 121.15L167.9 116.9L59.65 129.8V224.7L105.92 219.19L105.45 215.97L62.93 221.03V132.69Z" fill="#C6C6C6"/>
<path d="M194.6 113.72V116.99L349.38 98.5399V186.89L134.94 212.45L135.71 215.64L352.66 189.78V94.8799L194.6 113.72Z" fill="#C6C6C6"/>
<path d="M63.75 131.87L160.52 120.33L168.72 116.08L60.47 128.98V223.88L106.73 218.37L106.27 215.15L63.75 220.22V131.87Z" fill="#C2C2C2"/>
<path d="M195.42 112.9V116.17L350.2 97.7201V186.07L135.75 211.63L136.53 214.82L353.48 188.96V94.0601L195.42 112.9Z" fill="#C2C2C2"/>
<path d="M64.56 131.05L161.34 119.51L169.54 115.26L61.29 128.16V223.06L107.55 217.55L107.09 214.33L64.56 219.4V131.05Z" fill="#BDBDBD"/>
<path d="M196.24 112.08V115.35L351.02 96.91V185.25L136.57 210.81L137.35 214L354.3 188.14V93.24L196.24 112.08Z" fill="#BDBDBD"/>
<path d="M65.38 130.23L162.16 118.69L170.36 114.44L62.11 127.34V222.24L108.37 216.73L107.91 213.51L65.38 218.58V130.23Z" fill="#B9B9B9"/>
<path d="M197.06 111.26V114.53L351.84 96.0899V184.44L137.39 210L138.17 213.18L355.12 187.32V92.4199L197.06 111.26Z" fill="#B9B9B9"/>
<path d="M66.2 129.41L162.97 117.88L171.18 113.62L62.93 126.52V221.43L109.19 215.91L108.73 212.69L66.2 217.76V129.41Z" fill="#B5B5B5"/>
<path d="M197.88 110.44V113.72L352.66 95.2699V183.62L138.21 209.18L138.98 212.36L355.94 186.5V91.5999L197.88 110.44Z" fill="#B5B5B5"/>
<path d="M67.02 128.59L163.79 117.06L172 112.8L63.75 125.71V220.61L110.01 215.09L109.55 211.87L67.02 216.94V128.59Z" fill="#B1B1B1"/>
<path d="M198.69 109.62V112.9L353.48 94.45V182.8L139.03 208.36L139.8 211.54L356.75 185.68V90.78L198.69 109.62Z" fill="#B1B1B1"/>
<path d="M67.84 127.77L164.61 116.24L172.81 111.98L64.56 124.89V219.79L110.83 214.27L110.36 211.05L67.84 216.12V127.77Z" fill="#ADADAD"/>
<path d="M199.51 108.8V112.08L354.3 93.63V181.98L139.85 207.54L140.62 210.72L357.57 184.87V89.96L199.51 108.8Z" fill="#ADADAD"/>
<path d="M68.66 126.95L165.43 115.42L173.63 111.17L65.38 124.07V218.97L111.65 213.46L111.18 210.23L68.66 215.3V126.95Z" fill="#A9A9A9"/>
<path d="M200.33 107.98V111.26L355.12 92.8099V181.16L140.67 206.72L141.44 209.9L358.39 184.05V89.1499L200.33 107.98Z" fill="#A9A9A9"/>
<path d="M69.48 126.14L166.25 114.6L174.45 110.35L66.2 123.25V218.15L112.47 212.64L112 209.42L69.48 214.48V126.14Z" fill="#A5A5A5"/>
<path d="M201.15 107.17V110.44L355.93 91.9901V180.34L141.49 205.9L142.26 209.09L359.21 183.23V88.3301L201.15 107.17Z" fill="#A5A5A5"/>
<path d="M70.3 125.32L167.07 113.78L175.27 109.53L67.02 122.43V217.33L113.28 211.82L112.82 208.6L70.3 213.66V125.32Z" fill="#A1A1A1"/>
<path d="M201.97 106.35V109.62L356.75 91.17V179.52L142.3 205.08L143.08 208.27L360.03 182.41V87.51L201.97 106.35Z" fill="#A1A1A1"/>
<path d="M71.12 124.5L167.89 112.96L176.09 108.71L67.84 121.61V216.51L114.1 211L113.64 207.78L71.12 212.85V124.5Z" fill="#9D9D9D"/>
<path d="M202.79 105.53V108.8L357.57 90.3599V178.71L143.12 204.26L143.9 207.45L360.85 181.59V86.6899L202.79 105.53Z" fill="#9D9D9D"/>
<path d="M71.94 123.68L168.71 112.14L176.91 107.89L68.66 120.79V215.69L114.92 210.18L114.46 206.96L71.94 212.03V123.68Z" fill="#999999"/>
<path d="M203.61 104.71V107.98L358.39 89.5399V177.89L143.94 203.44L144.72 206.63L361.67 180.77V85.8699L203.61 104.71Z" fill="#999999"/>
<path d="M72.75 122.86L169.52 111.33L177.73 107.07L69.48 119.97V214.88L115.74 209.36L115.28 206.14L72.75 211.21V122.86Z" fill="#949494"/>
<path d="M204.43 103.89V107.17L359.21 88.72V177.07L144.76 202.63L145.53 205.81L362.49 179.95V85.05L204.43 103.89Z" fill="#949494"/>
<path d="M73.57 122.04L170.34 110.51L178.55 106.25L70.3 119.16V214.06L116.56 208.54L116.1 205.32L73.57 210.39V122.04Z" fill="#909090"/>
<path d="M205.24 103.07V106.35L360.03 87.9V176.25L145.58 201.81L146.35 204.99L363.3 179.13V84.23L205.24 103.07Z" fill="#909090"/>
<path d="M74.39 121.22L171.16 109.69L179.37 105.44L71.11 118.34V213.24L117.38 207.72L116.91 204.5L74.39 209.57V121.22Z" fill="#8C8C8C"/>
<path d="M206.06 102.25V105.53L360.85 87.0799V175.43L146.4 200.99L147.17 204.17L364.12 178.31V83.4099L206.06 102.25Z" fill="#8C8C8C"/>
<path d="M75.21 120.4L171.98 108.87L180.18 104.62L71.93 117.52V212.42L118.2 206.91L117.73 203.68L75.21 208.75V120.4Z" fill="#888888"/>
<path d="M206.88 101.43V104.71L361.67 86.2598V174.61L147.22 200.17L147.99 203.35L364.94 177.5V82.5898L206.88 101.43Z" fill="#888888"/>
<path d="M76.03 119.58L172.8 108.05L181 103.8L72.75 116.7V211.6L119.02 206.09L118.55 202.87L76.03 207.93V119.58Z" fill="#848484"/>
<path d="M207.7 100.61V103.89L362.49 85.44V173.79L148.04 199.35L148.81 202.53L365.76 176.68V81.78L207.7 100.61Z" fill="#848484"/>
<path d="M76.85 118.77L173.62 107.23L181.82 102.98L73.57 115.88V210.78L119.83 205.27L119.37 202.05L76.85 207.12V118.77Z" fill="#808080"/>
<path d="M208.52 99.8V103.07L363.3 84.62V172.97L148.85 198.53L149.63 201.72L366.58 175.86V80.96L208.52 99.8Z" fill="#808080"/>
</g>
<path d="M134.9 127.07L113.04 129.56V134.29L112.86 168.9V173.64L115.98 173.29L116.84 178.43C116.988 179.332 117.483 180.139 118.22 180.68C118.957 181.22 119.876 181.45 120.78 181.32L122.62 181.11L128.44 212.25C128.97 215.07 131.32 216.78 133.69 216.06L144.8 212.69C147.17 211.97 148.67 209.1 148.14 206.28C147.35 202.12 142.48 203.37 142.48 203.33C142.84 200.21 140.54 197.1 140.03 197.69C142.93 194.31 139.36 185.81 138.03 187.24C140.03 185.03 139.15 180.64 137.85 178.31C137.91 178.25 137.98 178.2 138.04 178.13L144.53 170.94C147.679 171.188 150.797 171.74 153.84 172.59L193.76 183.79L194.2 100.86L154.15 121.25C148.129 124.316 141.611 126.286 134.9 127.07Z" fill="#102940"/>
<path d="M97.95 144.09L97.85 162.54C97.8175 163.562 98.0095 164.579 98.4123 165.52C98.8152 166.46 99.4191 167.3 100.182 167.982C100.944 168.663 101.847 169.169 102.826 169.465C103.806 169.76 104.838 169.837 105.85 169.69L110.17 169.2L110.35 134.59L106.03 135.08C103.835 135.384 101.819 136.456 100.34 138.106C98.861 139.755 98.0142 141.875 97.95 144.09Z" fill="#102940"/>
<path d="M202.21 96.42C201.95 96.1917 201.644 96.0218 201.313 95.9218C200.982 95.8217 200.633 95.7938 200.29 95.84C199.552 95.9343 198.871 96.2877 198.369 96.8371C197.868 97.3866 197.577 98.0964 197.55 98.84C197.49 109.38 197.14 174.98 197.09 185.33C197.13 185.934 197.407 186.498 197.86 186.9C198.121 187.126 198.427 187.295 198.758 187.395C199.089 187.495 199.437 187.524 199.78 187.48C200.517 187.382 201.195 187.027 201.696 186.479C202.197 185.93 202.489 185.222 202.52 184.48L203 98.25C203.006 97.9063 202.939 97.5652 202.803 97.2495C202.667 96.9339 202.465 96.6511 202.21 96.42Z" fill="#102940"/>
<path d="M77.26 118.35L174.03 106.82L182.23 102.57L73.98 115.47V210.37L120.25 204.85L119.78 201.63L77.26 206.7V118.35Z" fill="#102940"/>
<path d="M208.93 99.38V102.66L363.72 84.21V172.56L149.27 198.12L150.04 201.3L366.99 175.45V80.55L208.93 99.38Z" fill="#102940"/>
<path d="M90.33 99.5301V101.43L187.46 88.9701V87.0701L90.33 99.5301Z" fill="#102940"/>
<path d="M254.17 215.7V217.37L339.13 206.47V204.8L254.17 215.7Z" fill="#102940"/>
<path d="M242.04 110.72V141.72C242.17 143.513 241.64 145.291 240.55 146.72C239.48 147.87 237.46 148.65 234.47 149.02L227.65 149.87C224.65 150.25 222.65 149.96 221.57 149.08C220.49 148.2 220.08 146.6 220.08 144.47V113.47L228.39 112.47V141.58C228.39 142.22 228.71 142.5 229.3 142.43L232.76 142C232.898 142 233.035 141.972 233.162 141.917C233.289 141.862 233.403 141.781 233.497 141.679C233.591 141.578 233.663 141.458 233.708 141.327C233.753 141.197 233.771 141.058 233.76 140.92V111.76L242.04 110.72Z" fill="#102940"/>
<path d="M253.18 146.66L245.35 147.66V110.31L253.66 109.31L261.13 129.98V108.35L268.91 107.35V144.71L260.59 145.71L253.18 125.84V146.66Z" fill="#102940"/>
<path d="M272.48 106.94L286.88 105.15C289.88 104.78 291.88 105.07 292.96 105.95C294.04 106.83 294.45 108.37 294.45 110.56V135.19C294.582 136.983 294.051 138.761 292.96 140.19C291.89 141.34 289.86 142.12 286.88 142.5L272.48 144.25V106.94ZM285.17 135.49C285.308 135.49 285.445 135.462 285.572 135.407C285.699 135.352 285.813 135.271 285.907 135.169C286.001 135.068 286.073 134.948 286.118 134.817C286.163 134.686 286.181 134.548 286.17 134.41V113.41C286.17 112.78 285.85 112.49 285.17 112.57L280.8 113.12V136.03L285.17 135.49Z" fill="#102940"/>
<path d="M317.43 108.56L307.08 109.84V117.68L315.99 116.57V123.77L307.08 124.88V132.77L317.43 131.48V138.68L298.71 141.01V133.81H298.77V103.68L317.43 101.36V108.56Z" fill="#102940"/>
<path d="M345.36 135.25L336.99 136.25L332.89 125.94L330.89 126.94V137.07L322.68 138.07V100.77L336.92 98.9999C339.92 98.6299 341.87 98.9099 342.92 99.7499C343.97 100.59 344.46 102.22 344.46 104.36V115.82C344.572 117.618 344.024 119.396 342.92 120.82C342.156 121.554 341.246 122.119 340.25 122.48L345.36 135.25ZM330.86 106.83V118.35L335.18 116.25C335.87 115.95 336.18 115.49 336.18 114.37V107.19C336.18 106.5 335.91 106.19 335.27 106.29L330.86 106.83Z" fill="#102940"/>
<path d="M218.75 163.14V160.14C218.75 159.82 218.59 159.69 218.28 159.72L216.6 159.93C216.533 159.931 216.468 159.946 216.407 159.974C216.347 160.002 216.292 160.042 216.248 160.091C216.204 160.141 216.171 160.2 216.15 160.263C216.13 160.327 216.123 160.394 216.13 160.46V170.81C216.13 171.13 216.28 171.26 216.6 171.23L218.28 171.02C218.347 171.019 218.412 171.004 218.473 170.976C218.533 170.949 218.588 170.908 218.632 170.859C218.676 170.809 218.709 170.75 218.73 170.687C218.75 170.623 218.757 170.556 218.75 170.49V167.49L222.61 167.01V170.87C222.665 171.755 222.395 172.63 221.85 173.33C221.007 174.035 219.949 174.433 218.85 174.46L215.75 174.84C214.28 175.03 213.28 174.84 212.75 174.45C212.466 174.149 212.251 173.791 212.12 173.399C211.989 173.007 211.945 172.591 211.99 172.18V160.11C211.922 159.223 212.193 158.344 212.75 157.65C213.591 156.94 214.65 156.541 215.75 156.52L218.85 156.14C220.34 155.95 221.34 156.14 221.85 156.53C222.132 156.832 222.346 157.191 222.477 157.582C222.608 157.974 222.654 158.389 222.61 158.8V162.66L218.75 163.14Z" fill="#102940"/>
<path d="M225 158.39C224.935 157.51 225.199 156.637 225.74 155.94C226.582 155.233 227.641 154.834 228.74 154.81L232.1 154.39C233.573 154.21 234.573 154.34 235.1 154.78C235.374 155.086 235.581 155.446 235.706 155.837C235.832 156.228 235.874 156.642 235.83 157.05V169.18C235.889 170.061 235.63 170.934 235.1 171.64C234.251 172.336 233.197 172.733 232.1 172.77L228.74 173.19C227.24 173.37 226.27 173.19 225.74 172.8C225.465 172.494 225.257 172.134 225.129 171.743C225.002 171.352 224.958 170.939 225 170.53V158.39ZM229.1 169.13C229.1 169.44 229.26 169.58 229.55 169.54L231.25 169.33C231.317 169.329 231.382 169.314 231.443 169.286C231.503 169.258 231.558 169.218 231.602 169.168C231.646 169.119 231.679 169.06 231.7 168.997C231.72 168.933 231.727 168.866 231.72 168.8V158.45C231.72 158.14 231.57 158 231.25 158.04L229.57 158.25C229.505 158.254 229.442 158.27 229.383 158.299C229.325 158.328 229.274 158.369 229.231 158.418C229.189 158.468 229.158 158.526 229.139 158.588C229.119 158.65 229.113 158.715 229.12 158.78L229.1 169.13Z" fill="#102940"/>
<path d="M241.49 171.6L237.63 172.08V153.7L241.73 153.19L245.41 163.37V152.73L249.24 152.26V170.64L245.14 171.15L241.49 161.36V171.6Z" fill="#102940"/>
<path d="M251.87 160.6C251.587 160.273 251.373 159.891 251.242 159.478C251.112 159.066 251.067 158.631 251.11 158.2V155.2C251.053 154.315 251.324 153.439 251.87 152.74C252.712 152.033 253.771 151.634 254.87 151.61L257.97 151.23C259.46 151.04 260.44 151.18 260.97 151.62C261.249 151.923 261.459 152.283 261.586 152.675C261.714 153.066 261.756 153.481 261.71 153.89V156.89L257.87 157.36V155.25C257.87 154.93 257.72 154.79 257.4 154.83L255.56 155.06C255.495 155.064 255.432 155.08 255.375 155.11C255.317 155.139 255.266 155.179 255.224 155.229C255.183 155.279 255.153 155.337 255.135 155.399C255.117 155.461 255.112 155.526 255.12 155.59V157.35C255.12 157.74 255.98 158.29 257.72 159C258.921 159.395 260.06 159.961 261.1 160.68C261.385 161.006 261.597 161.388 261.725 161.801C261.852 162.215 261.892 162.65 261.84 163.08V165.99C261.901 166.873 261.638 167.748 261.1 168.45C260.255 169.152 259.198 169.55 258.1 169.58L254.74 170C253.24 170.19 252.27 170 251.74 169.61C251.465 169.304 251.257 168.944 251.129 168.553C251.002 168.162 250.958 167.749 251 167.34V164.34L255 163.85V165.92C255 166.24 255.15 166.38 255.47 166.34L257.31 166.11C257.374 166.105 257.436 166.087 257.494 166.058C257.551 166.028 257.601 165.987 257.642 165.938C257.683 165.889 257.714 165.831 257.732 165.77C257.751 165.708 257.757 165.644 257.75 165.58V163.79C257.75 163.48 256.91 162.98 255.21 162.27C254.029 161.861 252.906 161.3 251.87 160.6Z" fill="#102940"/>
<path d="M270.06 168.05L265.97 168.56V153.73L262.61 154.14V150.6L273.43 149.25V152.79L270.06 153.21V168.05Z" fill="#102940"/>
<path d="M285.87 166.12L281.75 166.63L279.75 161.55L278.75 162.02V167.02L274.75 167.52V149.12L281.75 148.25C282.742 148.001 283.791 148.133 284.69 148.62C284.966 148.926 285.176 149.285 285.306 149.676C285.437 150.066 285.486 150.48 285.45 150.89V156.54C285.505 157.425 285.235 158.3 284.69 159C284.312 159.357 283.867 159.636 283.38 159.82L285.87 166.12ZM278.73 152.12V157.79L280.86 156.74C281.2 156.59 281.33 156.36 281.33 155.81V152.25C281.33 151.91 281.2 151.77 280.88 151.81L278.73 152.12Z" fill="#102940"/>
<path d="M298.03 146.25V161.51C298.089 162.388 297.83 163.258 297.3 163.96C296.455 164.662 295.398 165.06 294.3 165.09L290.94 165.51C289.44 165.7 288.47 165.56 287.94 165.12C287.664 164.815 287.455 164.455 287.327 164.064C287.2 163.673 287.156 163.259 287.2 162.85V147.54L291.3 147.03V161.4C291.3 161.71 291.46 161.85 291.74 161.82L293.45 161.6C293.517 161.601 293.584 161.587 293.645 161.559C293.706 161.532 293.761 161.492 293.806 161.442C293.85 161.392 293.883 161.332 293.903 161.268C293.923 161.204 293.929 161.137 293.92 161.07V146.71L298.03 146.25Z" fill="#102940"/>
<path d="M306.83 152.25V149.25C306.83 148.93 306.67 148.8 306.35 148.84L304.67 149.04C304.603 149.042 304.537 149.058 304.476 149.087C304.416 149.116 304.362 149.157 304.318 149.208C304.274 149.258 304.241 149.318 304.22 149.382C304.2 149.446 304.193 149.513 304.2 149.58V159.92C304.2 160.24 304.36 160.38 304.67 160.34L306.35 160.13C306.417 160.129 306.483 160.114 306.544 160.086C306.605 160.058 306.66 160.019 306.705 159.969C306.75 159.919 306.784 159.861 306.806 159.797C306.827 159.734 306.836 159.667 306.83 159.6V156.6L310.69 156.12V159.98C310.74 160.864 310.47 161.738 309.93 162.44C309.089 163.148 308.03 163.547 306.93 163.57L303.83 163.96C302.36 164.14 301.37 163.96 300.83 163.56C300.545 163.26 300.329 162.902 300.197 162.509C300.066 162.117 300.022 161.701 300.07 161.29V149.17C299.997 148.283 300.27 147.402 300.83 146.71C301.671 146.001 302.73 145.602 303.83 145.58L306.93 145.2C308.43 145.01 309.43 145.2 309.93 145.59C310.209 145.893 310.421 146.253 310.552 146.644C310.683 147.035 310.73 147.449 310.69 147.86V151.72L306.83 152.25Z" fill="#102940"/>
<path d="M319.22 161.95L315.13 162.46V147.62L311.76 148.04V144.49L322.57 143.15V146.69L319.21 147.11L319.22 161.95Z" fill="#102940"/>
<path d="M327.73 142.51V160.89L323.63 161.4V143.02L327.73 142.51Z" fill="#102940"/>
<path d="M330.09 145.34C330.025 144.46 330.289 143.587 330.83 142.89C331.672 142.18 332.73 141.778 333.83 141.75L337.19 141.34C338.203 141.079 339.278 141.218 340.19 141.73C340.467 142.034 340.675 142.394 340.801 142.786C340.927 143.177 340.967 143.591 340.92 144V156.13C340.984 157.011 340.725 157.886 340.19 158.59C339.341 159.286 338.287 159.683 337.19 159.72L333.83 160.14C332.34 160.32 331.36 160.14 330.83 159.75C330.557 159.441 330.35 159.079 330.222 158.687C330.095 158.295 330.05 157.88 330.09 157.47V145.34ZM334.19 156.07C334.19 156.39 334.35 156.53 334.64 156.49L336.34 156.28C336.407 156.279 336.473 156.264 336.534 156.236C336.595 156.209 336.65 156.169 336.695 156.119C336.74 156.069 336.774 156.011 336.796 155.947C336.817 155.884 336.825 155.817 336.82 155.75V145.4C336.82 145.08 336.66 144.95 336.34 144.99L334.64 145.2C334.575 145.202 334.51 145.218 334.451 145.247C334.393 145.275 334.34 145.316 334.298 145.365C334.255 145.415 334.224 145.474 334.205 145.536C334.187 145.599 334.182 145.665 334.19 145.73V156.07Z" fill="#102940"/>
<path d="M346.57 158.55L342.72 159.03V140.65L346.81 140.14L350.49 150.32V139.68L354.32 139.21V157.59L350.22 158.1L346.57 148.31V158.55Z" fill="#102940"/>
<path d="M179.45 205.33L180.69 215.11L182.37 204.97L186.25 204.48L187.93 214.19L189.17 204.12L192.01 203.77L190.14 216.77L185.89 217.29L184.32 208.01L182.73 217.68L178.47 218.21L176.57 205.68L179.45 205.33Z" fill="#102940"/>
<path d="M195.22 203.37V216.13L192.38 216.49V203.72L195.22 203.37Z" fill="#102940"/>
<path d="M200.25 202.74V213.05L203.46 212.65V215.11L197.46 215.86V203.1L200.25 202.74Z" fill="#102940"/>
<path d="M207.57 201.83V212.14L210.78 211.74V214.25L204.73 215V202.19L207.57 201.83Z" fill="#102940"/>
<path d="M220.24 200.39L225.07 199.79C225.772 199.61 226.517 199.707 227.15 200.06C227.343 200.272 227.489 200.522 227.577 200.795C227.665 201.067 227.693 201.356 227.66 201.64V204.01C227.665 204.366 227.575 204.717 227.399 205.026C227.223 205.335 226.968 205.592 226.66 205.77C226.5 205.86 226.4 205.95 226.4 206C226.4 206.05 226.5 206.1 226.66 206.15C226.981 206.252 227.26 206.457 227.452 206.734C227.643 207.011 227.738 207.344 227.72 207.68V210.05C227.76 210.663 227.579 211.269 227.21 211.76C226.623 212.245 225.891 212.519 225.13 212.54L220.21 213.15L220.24 200.39ZM224.58 204.99C224.688 204.93 224.777 204.839 224.834 204.728C224.891 204.618 224.914 204.493 224.9 204.37V202.6C224.9 202.38 224.79 202.29 224.58 202.31L223.08 202.5V205.69L224.58 204.99ZM224.58 210.15C224.626 210.149 224.671 210.138 224.713 210.119C224.755 210.099 224.792 210.071 224.822 210.036C224.852 210.001 224.875 209.96 224.888 209.916C224.902 209.872 224.906 209.826 224.9 209.78V207.78C224.9 207.56 224.79 207.45 224.58 207.48L223.08 208.17V210.36L224.58 210.15Z" fill="#102940"/>
<path d="M235.79 200.79L232.25 201.23V203.91L235.25 203.53V206L232.25 206.37V209.07L235.79 208.63V211.1L229.39 211.89V209.43V199.12L235.77 198.33L235.79 200.79Z" fill="#102940"/>
<path d="M249.75 196.6V206.9L252.96 206.5V208.96L246.96 209.71V196.95L249.75 196.6Z" fill="#102940"/>
<path d="M256.57 195.75V208.52L253.73 208.87V196.11L256.57 195.75Z" fill="#102940"/>
<path d="M260.03 195.32L261.77 205.25L263.5 194.93L266.34 194.58L264.03 207.63L259.51 208.19L257.19 195.71L260.03 195.32Z" fill="#102940"/>
<path d="M273.51 196.11L269.97 196.55V199.25L272.97 198.87V201.33L269.97 201.71V204.41L273.51 203.97V206.43L267.11 207.23V204.76V194.46L273.49 193.67L273.51 196.11Z" fill="#102940"/>
<path d="M284.65 198.25C284.452 198.023 284.303 197.757 284.212 197.47C284.12 197.183 284.089 196.88 284.12 196.58V194.47C284.078 193.854 284.267 193.244 284.65 192.76C285.228 192.266 285.96 191.99 286.72 191.98L288.88 191.71C289.579 191.53 290.321 191.627 290.95 191.98C291.143 192.191 291.289 192.442 291.377 192.715C291.465 192.987 291.493 193.275 291.46 193.56V195.62L288.8 195.95V194.51C288.8 194.29 288.69 194.19 288.47 194.22L287.2 194.38C287.155 194.381 287.111 194.391 287.071 194.411C287.03 194.43 286.994 194.457 286.965 194.491C286.936 194.525 286.914 194.565 286.901 194.608C286.888 194.65 286.884 194.696 286.89 194.74V195.97C286.89 196.243 287.49 196.623 288.69 197.11C289.524 197.388 290.315 197.782 291.04 198.28C291.239 198.506 291.389 198.772 291.478 199.059C291.568 199.347 291.596 199.651 291.56 199.95V201.95C291.602 202.561 291.417 203.167 291.04 203.65C290.46 204.14 289.73 204.419 288.97 204.44L286.63 204.73C285.928 204.91 285.183 204.813 284.55 204.46C284.361 204.246 284.217 203.995 284.13 203.723C284.042 203.451 284.011 203.164 284.04 202.88V200.82L286.8 200.48V201.92C286.8 202.14 286.91 202.23 287.12 202.21L288.4 202.05C288.445 202.048 288.489 202.036 288.53 202.016C288.57 201.995 288.606 201.967 288.635 201.932C288.665 201.898 288.686 201.857 288.699 201.814C288.712 201.771 288.716 201.725 288.71 201.68V200.44C288.71 200.22 288.13 199.88 286.94 199.39C286.13 199.111 285.361 198.728 284.65 198.25Z" fill="#102940"/>
<path d="M293.01 193.39C292.968 192.78 293.149 192.176 293.52 191.69C294.106 191.202 294.838 190.924 295.6 190.9L297.94 190.61C298.639 190.436 299.379 190.532 300.01 190.88C300.205 191.091 300.352 191.341 300.442 191.613C300.532 191.886 300.562 192.175 300.53 192.46V200.89C300.57 201.501 300.385 202.106 300.01 202.59C299.427 203.076 298.699 203.354 297.94 203.38L295.6 203.67C294.898 203.85 294.153 203.753 293.52 203.4C293.331 203.186 293.188 202.935 293.101 202.663C293.013 202.391 292.982 202.104 293.01 201.82V193.39ZM295.86 200.84C295.86 201.06 295.97 201.16 296.17 201.13L297.35 200.99C297.396 200.989 297.442 200.978 297.484 200.959C297.526 200.939 297.564 200.911 297.595 200.876C297.626 200.842 297.649 200.801 297.664 200.757C297.679 200.713 297.684 200.666 297.68 200.62V193.43C297.68 193.21 297.57 193.12 297.35 193.15L296.17 193.29C296.125 193.292 296.081 193.304 296.04 193.324C296 193.345 295.964 193.373 295.935 193.408C295.905 193.442 295.884 193.483 295.871 193.526C295.858 193.569 295.854 193.615 295.86 193.66V200.84Z" fill="#102940"/>
<path d="M302.17 192.25C302.122 191.637 302.304 191.027 302.68 190.54C303.261 190.052 303.991 189.777 304.75 189.76L307.09 189.47C307.792 189.287 308.538 189.384 309.17 189.74C309.362 189.95 309.507 190.199 309.595 190.47C309.682 190.741 309.712 191.027 309.68 191.31V199.74C309.72 200.35 309.539 200.953 309.17 201.44C308.582 201.925 307.851 202.202 307.09 202.23L304.75 202.52C304.051 202.7 303.309 202.604 302.68 202.25C302.487 202.039 302.341 201.788 302.253 201.515C302.165 201.243 302.137 200.955 302.17 200.67V192.25ZM305.01 199.7C305.01 199.92 305.12 200.01 305.32 199.99L306.51 199.84C306.556 199.839 306.601 199.828 306.643 199.809C306.685 199.789 306.722 199.761 306.752 199.726C306.782 199.691 306.805 199.65 306.818 199.606C306.832 199.562 306.836 199.516 306.83 199.47V192.29C306.83 192.07 306.72 191.97 306.51 192L305.32 192.15C305.275 192.151 305.231 192.162 305.191 192.181C305.15 192.2 305.114 192.227 305.085 192.261C305.056 192.295 305.034 192.335 305.021 192.378C305.008 192.421 305.004 192.466 305.01 192.51V199.7Z" fill="#102940"/>
<path d="M313.62 201.43L310.93 201.76V189L313.78 188.65L316.33 195.71V188.33L318.99 188V200.76L316.15 201.11L313.62 194.32V201.43Z" fill="#102940"/>
<path d="M223.289 88.5359C222.619 90.488 221.667 91.9291 220.433 92.8591C219.223 93.7863 217.534 94.3782 215.365 94.6349L208 95.5066L216.184 71.6724L223.119 70.8515C225.264 70.5976 226.741 70.8257 227.549 71.5358C228.364 72.2232 228.449 73.509 227.802 75.393L223.289 88.5359ZM224.797 75.4547C225.054 74.7056 225.018 74.1436 224.69 73.7688C224.369 73.3712 223.815 73.219 223.029 73.3121L218.417 73.8579L211.987 92.5848L216.563 92.0432C217.469 91.936 218.202 91.6641 218.764 91.2274C219.333 90.768 219.766 90.1071 220.062 89.2445L224.797 75.4547Z" fill="black"/>
<path d="M232.629 86.8098L229.166 93.0015L225.984 93.378L240.209 68.8287L244.321 68.3421L242.072 91.4739L238.89 91.8505L239.601 85.9847L232.629 86.8098ZM239.905 83.4987L241.44 70.839L234.078 84.1884L239.905 83.4987Z" fill="black"/>
<path d="M261.364 83.6375C260.701 85.5669 259.642 87.086 258.187 88.1946C256.763 89.2778 255.015 89.942 252.941 90.1874L247.865 90.7883L248.753 88.2006L254.187 87.5574C255.069 87.453 255.87 87.1187 256.589 86.5545C257.309 85.9902 257.79 85.3562 258.031 84.6526L259.247 81.1115C259.481 80.4305 259.477 79.9083 259.236 79.5448C259.027 79.1559 258.553 79.0051 257.814 79.0925L256.741 79.2195C254.978 79.4282 253.751 79.1052 253.061 78.2504C252.379 77.373 252.362 75.9922 253.009 74.1082L253.453 72.8143C254.115 70.8849 255.159 69.3786 256.582 68.2955C258.038 67.1868 259.802 66.5098 261.875 66.2644L266.988 65.6593L266.099 68.247L260.629 68.8944C259.748 68.9988 258.947 69.3331 258.227 69.8974C257.508 70.4616 257.027 71.0956 256.785 71.7993L255.897 74.387C255.655 75.0907 255.691 75.6526 256.004 76.0729C256.325 76.4705 256.867 76.6241 257.629 76.5338L258.702 76.4069C260.394 76.2066 261.545 76.5168 262.155 77.3375C262.789 78.1553 262.782 79.5062 262.135 81.3903L261.364 83.6375Z" fill="black"/>
<path d="M272.723 77.3279L268.959 88.2916L265.849 88.6598L274.032 64.8255L277.142 64.4574L273.588 74.8083L280.953 73.9366L284.507 63.5858L287.617 63.2176L279.434 87.0519L276.323 87.42L280.088 76.4562L272.723 77.3279Z" fill="black"/>
<path d="M300.409 79.4082C299.738 81.3603 298.786 82.8014 297.552 83.7314C296.342 84.6586 294.653 85.2505 292.484 85.5072L285.334 86.3535L293.517 62.5193L300.239 61.7238C302.36 61.4727 303.769 61.698 304.465 62.3995C305.186 63.0982 305.219 64.4009 304.564 66.3076L303.897 68.2484C303.297 69.9963 302.19 71.3904 300.575 72.4308C301.844 73.0646 302.139 74.369 301.461 76.3438L300.409 79.4082ZM301.559 66.3693C301.855 65.5068 301.855 64.9079 301.558 64.5728C301.286 64.2349 300.696 64.1195 299.791 64.2267L295.751 64.7048L293.167 72.2296L297.207 71.7515C297.946 71.6641 298.644 71.3637 299.3 70.8505C299.956 70.3373 300.413 69.7061 300.67 68.957L301.559 66.3693ZM298.456 76.4055C298.713 75.6564 298.677 75.0944 298.349 74.7196C298.028 74.322 297.474 74.1698 296.688 74.2629L292.29 74.7833L289.321 83.4317L293.683 82.9155C294.588 82.8083 295.322 82.5364 295.883 82.0997C296.453 81.6404 296.885 80.9794 297.182 80.1168L298.456 76.4055Z" fill="black"/>
<path d="M320.392 76.651C319.729 78.5805 318.671 80.0995 317.215 81.2082C315.792 82.2913 314.043 82.9556 311.969 83.201L310.539 83.3703C308.466 83.6157 307.033 83.328 306.24 82.5072C305.479 81.6609 305.429 80.273 306.092 78.3436L310.3 66.086C310.963 64.1566 312.006 62.6503 313.43 61.5671C314.885 60.4585 316.649 59.7815 318.723 59.536L320.153 59.3668C322.226 59.1214 323.644 59.4218 324.405 60.2681C325.198 61.0889 325.263 62.464 324.601 64.3935L320.392 76.651ZM321.712 64.1146C321.954 63.411 321.886 62.8419 321.51 62.4074C321.133 61.9729 320.504 61.8078 319.622 61.9122L317.477 62.1661C316.595 62.2704 315.794 62.6048 315.075 63.169C314.355 63.7333 313.874 64.3673 313.633 65.0709L308.98 78.6224C308.738 79.3261 308.806 79.8952 309.183 80.3297C309.559 80.7642 310.189 80.9292 311.07 80.8249L313.215 80.571C314.097 80.4666 314.898 80.1323 315.618 79.568C316.337 79.0038 316.818 78.3698 317.059 77.6661L321.712 64.1146Z" fill="black"/>
<path d="M329.163 75.3843L325.699 81.576L322.517 81.9526L336.743 57.4033L340.854 56.9167L338.605 80.0485L335.423 80.4251L336.134 74.5592L329.163 75.3843ZM336.439 72.0732L337.973 59.4135L330.611 72.763L336.439 72.0732Z" fill="black"/>
<path d="M349.218 69.3194L345.828 79.1936L342.718 79.5617L350.901 55.7275L357.622 54.932C359.648 54.6922 361.025 54.943 361.754 55.6842C362.514 56.4 362.579 57.6772 361.948 59.5158L360.825 62.7845C359.945 65.3495 358.323 67.0768 355.959 67.9662L357.34 77.8311L353.943 78.2331L352.722 68.9047L349.218 69.3194ZM358.942 59.5775C359.239 58.715 359.238 58.1161 358.942 57.781C358.669 57.4431 358.08 57.3277 357.174 57.4349L353.135 57.913L350.095 66.7657L354.135 66.2876C355.04 66.1804 355.762 65.9099 356.3 65.476C356.869 65.0167 357.302 64.3557 357.598 63.4931L358.942 59.5775Z" fill="black"/>
<path d="M377.743 70.2551C377.072 72.2073 376.12 73.6483 374.886 74.5784C373.676 75.5055 371.987 76.0975 369.818 76.3542L362.453 77.2258L370.637 53.3916L377.572 52.5707C379.717 52.3169 381.194 52.545 382.002 53.2551C382.818 53.9425 382.902 55.2282 382.255 57.1123L377.743 70.2551ZM379.25 57.174C379.507 56.4249 379.472 55.8629 379.143 55.488C378.822 55.0905 378.269 54.9382 377.482 55.0313L372.87 55.5772L366.44 74.3041L371.016 73.7624C371.922 73.6552 372.656 73.3833 373.217 72.9467C373.786 72.4873 374.219 71.8263 374.515 70.9637L379.25 57.174Z" fill="black"/>
</g>
<defs>
<clipPath id="clip0_1390_5335">
<rect width="432" height="288" fill="white"/>
</clipPath>
</defs>
</svg>
