<svg width="182" height="182" viewBox="0 0 182 182" fill="none" xmlns="http://www.w3.org/2000/svg">
<path d="M30.333 159.25V147.875C30.333 124.84 49.0064 106.167 72.0413 106.167H94.7913C117.826 106.167 136.5 124.84 136.5 147.875V159.25M53.083 159.25V136.5M113.75 159.25V136.5M125.125 45.5L127.678 41.6699C130.41 37.5725 136.023 36.611 139.962 39.5657C144.138 42.6977 144.572 48.8025 140.881 52.4937L135.389 57.9856C133.673 59.7022 132.708 62.0306 132.708 64.4583M132.708 75.8333V77.35M104.863 37.1432C111.046 28.4333 121.213 22.75 132.708 22.75C151.555 22.75 166.833 38.0283 166.833 56.875C166.833 75.7217 151.555 91 132.708 91C123.266 91 114.72 87.1651 108.541 80.968M113.75 60.6667C113.75 43.914 100.169 30.3333 83.4163 30.3333C66.6637 30.3333 53.083 43.914 53.083 60.6667C53.083 77.4198 66.6637 91 83.4163 91C89.7196 91 95.5739 89.0776 100.425 85.7865C108.466 80.331 113.75 71.116 113.75 60.6667Z" stroke="#F6871F" stroke-width="10" stroke-linecap="round" stroke-linejoin="round"/>
</svg>
